<svg xmlns="http://www.w3.org/2000/svg" data-name="Layer 1" viewBox="0 0 100 125" x="0px" y="0px"><title>Artboard 427</title><path fill="#13758d" d="M19.87,97.37l11.62-.09,23.25-.38,11.62-.27,5.81-.17c1.07,0,1.71,0,3.13-.13A10.73,10.73,0,0,0,79,95.23a10.57,10.57,0,0,0,5-5.53A10.39,10.39,0,0,0,84.67,86l-.1-3-.46-11.62a1.72,1.72,0,1,0-3.44,0l0,.27-.46,11.62c0,.9,0,2.08-.12,2.75a5.68,5.68,0,0,1-.6,2,5.49,5.49,0,0,1-2.9,2.62,5.43,5.43,0,0,1-1.9.36l-2.77-.07-5.81-.16-11.62-.28-23.25-.37L19.6,90l-5.54,0a4.32,4.32,0,0,1-2.75-1.3,4.22,4.22,0,0,1-1.21-2.8l0-5.66L10,68.6,9.62,45.35,9.34,33.73l-.15-5.81c0-.87-.09-2.17-.07-2.68a5.31,5.31,0,0,1,.43-1.87,5.51,5.51,0,0,1,2.7-2.81,5.63,5.63,0,0,1,2-.52L17,19.93l11.62-.46h0a1.77,1.77,0,0,0,0-3.54h-.27l-11.61-.46c-1,0-1.79-.1-3.06-.07a10.31,10.31,0,0,0-3.66.82A10.48,10.48,0,0,0,3.7,25.13l-.11,3.05L3.43,34,3.15,45.61,2.79,68.86,2.71,80.49v4.36c0,.46,0,.93,0,1.72A11.65,11.65,0,0,0,13.9,97.38Z"/><path fill="#13758d" d="M97.13,12.83l.18-7.13v0a2.85,2.85,0,0,0-2.79-2.9h-.13c-4.09-.08-8-.28-12.46,0-2.16,0-4.28.5-6.43.75-2.11.48-4.24.92-6.31,1.57A54.5,54.5,0,0,0,33.46,40.41c-.67,2.07-1.14,4.21-1.65,6.32-.27,2.16-.75,4.3-.83,6.48-.27,4.23-.14,8-.11,11.86A42.55,42.55,0,0,0,17.3,80.28c-.05.14.43.76,1.09,1.42s1.28,1.14,1.42,1.08h0A42.57,42.57,0,0,0,35,69.2c4.1-.08,8.19,0,12.65-.45A52.25,52.25,0,0,0,61,65.49,54.07,54.07,0,0,0,83,49.74l.1-.1a2.29,2.29,0,0,0,0-2.89l-5.36-6.66-.67-.83a4.6,4.6,0,0,1-.36-.52,2.13,2.13,0,0,1-.26-1.06,2.37,2.37,0,0,1,1.17-2h0a2.81,2.81,0,0,0,1.06-2c.09-.9-1.11-1.82-2.61-1.17l-.38.19a6.12,6.12,0,0,0-3.11,4.91,6,6,0,0,0,.59,3,18.08,18.08,0,0,0,1.33,2.05l3.59,5.14A50.45,50.45,0,0,1,59,59.73a48.12,48.12,0,0,1-11.9,2.42c-2.86.21-6,.15-9.13.09.06-7,.34-13.31,2.57-19.54A51,51,0,0,1,52.21,23.52a51.29,51.29,0,0,1,19.09-12c6.4-2.38,13-2.71,20.24-2.85l.11,4.16a55.14,55.14,0,0,1-.16,6.82,50.83,50.83,0,0,1-2.61,12L80.63,32a1.73,1.73,0,1,0,0,3.44h.3l9.46.35a2,2,0,0,0,1.86-1.15l.06-.13a52.84,52.84,0,0,0,4.22-14.25A54.83,54.83,0,0,0,97.13,12.83Z"/></svg>